<?xml version="1.0" encoding="UTF-8"?>
<svg width="19px" height="20px" viewBox="0 0 19 20" version="1.1" xmlns="http://www.w3.org/2000/svg" xmlns:xlink="http://www.w3.org/1999/xlink">
    <!-- Generator: Sketch 51 (57462) - http://www.bohemiancoding.com/sketch -->
    <title>Icon24x24-5</title>
    <desc>Created with Sketch.</desc>
    <defs>
        <linearGradient x1="50%" y1="0%" x2="50%" y2="100%" id="linearGradient-1">
            <stop stop-color="#F0C27B" offset="0%"></stop>
            <stop stop-color="#7D440F" offset="100%"></stop>
        </linearGradient>
    </defs>
    <g id="SideMenu(draft3)-Copy" stroke="none" stroke-width="1" fill="none" fill-rule="evenodd">
        <g id="ICON/icon34/catalog-tea" transform="translate(-3.000000, -2.000000)">
            <rect id="ico-zone" fill-opacity="0" fill="#D8D8D8" fill-rule="evenodd" x="0" y="0" width="24" height="24"></rect>
            <path d="M19.1268016,10.0081021 L17.0878057,10.0081021 L17.0878057,8.51821372 C17.0878057,8.16051037 16.7933279,7.87049442 16.4301215,7.87049442 L4.49211336,7.87049442 C4.12890688,7.87049442 3.83436437,8.16051037 3.83436437,8.51821372 L3.83436437,19.2065072 C3.8342996,20.4566507 4.86704453,21.4736842 6.13635628,21.4736842 L14.7856194,21.4736842 C16.054996,21.4736842 17.0876761,20.4566507 17.0876761,19.2065072 L17.0876761,16.6477831 L19.1266721,16.6477831 C20.3960486,16.6477831 21.4287287,15.6307496 21.4287287,14.3806061 L21.4287287,12.2753429 C21.4288583,11.0251994 20.3961134,10.0081021 19.1268016,10.0081021 L19.1268016,10.0081021 Z M15.7722429,19.2065072 C15.7722429,19.7422648 15.3296842,20.178118 14.7856842,20.178118 L6.13635628,20.178118 C5.59235628,20.178118 5.14979757,19.7422648 5.14979757,19.2065072 L5.14979757,9.16599681 L15.7722429,9.16599681 L15.7722429,19.2065072 L15.7722429,19.2065072 Z M20.1133603,14.3805423 C20.1133603,14.9162998 19.6708016,15.3521531 19.1268016,15.3521531 L17.0878057,15.3521531 L17.0878057,11.3036045 L19.1268016,11.3036045 C19.6708016,11.3036045 20.1133603,11.7394577 20.1133603,12.2752153 L20.1133603,14.3805423 Z" id="Shape" fill="#4A4A4A" fill-rule="nonzero"></path>
            <path d="M11.8973279,11.8651356 C11.3419919,11.8651356 10.8364696,12.08689 10.4613441,12.4481021 C10.0861538,12.08689 9.5805668,11.8651356 9.02523077,11.8651356 C7.87076923,11.8651356 6.93156275,12.8234131 6.93156275,14.0012759 C6.93156275,14.8070813 7.48612146,15.7184051 8.57982186,16.7100478 C9.328583,17.3890271 10.0687935,17.8704944 10.1000162,17.8907177 C10.2096842,17.9617225 10.3355466,17.9972568 10.4613441,17.9972568 C10.5872065,17.9972568 10.7131336,17.9616587 10.8228016,17.8906539 C10.8538947,17.8704944 11.5940405,17.3888995 12.3426721,16.7099203 C13.4361134,15.7182137 13.9906073,14.8069537 13.9906073,14.0012759 C13.9906073,12.8233493 13.0515304,11.8651356 11.8973279,11.8651356 Z M10.4612794,16.5609569 C9.44375709,15.8314514 8.24699595,14.699075 8.24699595,14.0012759 C8.24699595,13.5377352 8.59608097,13.160638 9.02523077,13.160638 C9.45444534,13.160638 9.80365992,13.5377352 9.80365992,14.0012759 C9.80365992,14.3589793 10.0981377,14.6489952 10.4613441,14.6489952 C10.8245506,14.6489952 11.1190931,14.3589793 11.1190931,14.0012759 C11.1190931,13.5377352 11.4681781,13.160638 11.8973279,13.160638 C12.3261538,13.160638 12.6750445,13.5377352 12.6750445,14.0012759 C12.6750445,14.6989474 11.4786073,15.8313876 10.4612794,16.5609569 Z M6.66260729,7.02832536 C6.29933603,7.02832536 6.0048583,6.73824561 6.0048583,6.38054226 L6.0048583,4.24293461 C6.0048583,3.88523126 6.29940081,3.59515152 6.66260729,3.59515152 C7.02581377,3.59515152 7.32035628,3.88523126 7.32035628,4.24293461 L7.32035628,6.38054226 C7.32035628,6.73824561 7.02581377,7.02832536 6.66260729,7.02832536 Z M10.4610202,5.95948963 C10.0978138,5.95948963 9.80333603,5.66953748 9.80333603,5.31177033 L9.80333603,3.17409888 C9.80333603,2.81639553 10.097749,2.52631579 10.4610202,2.52631579 C10.8242915,2.52631579 11.1187692,2.81639553 11.1187692,3.17409888 L11.1187692,5.31177033 C11.1187692,5.66947368 10.8242267,5.95948963 10.4610202,5.95948963 Z M14.259498,7.02832536 C13.8962267,7.02832536 13.601749,6.73824561 13.601749,6.38054226 L13.601749,4.24293461 C13.601749,3.88523126 13.8962915,3.59515152 14.259498,3.59515152 C14.6227045,3.59515152 14.9171822,3.88523126 14.9171822,4.24293461 L14.9171822,6.38054226 C14.9171822,6.73824561 14.6227045,7.02832536 14.259498,7.02832536 Z" id="Shape" fill="url(#linearGradient-1)" fill-rule="nonzero"></path>
        </g>
    </g>
</svg>