<?xml version="1.0" encoding="UTF-8"?>
<svg width="24px" height="19px" viewBox="0 0 24 19" version="1.1" xmlns="http://www.w3.org/2000/svg" xmlns:xlink="http://www.w3.org/1999/xlink">
    <!-- Generator: Sketch 51 (57462) - http://www.bohemiancoding.com/sketch -->
    <title>Icon24x24-8</title>
    <desc>Created with Sketch.</desc>
    <defs>
        <linearGradient x1="50%" y1="0%" x2="50%" y2="100%" id="linearGradient-1">
            <stop stop-color="#FC7D7B" offset="0%"></stop>
            <stop stop-color="#8E78FF" offset="100%"></stop>
        </linearGradient>
    </defs>
    <g id="SideMenu(draft3)-Copy" stroke="none" stroke-width="1" fill="none" fill-rule="evenodd">
        <g id="ICON/icon34/catalog-baby" transform="translate(0.000000, -3.000000)">
            <rect id="ico-zone" fill-opacity="0" fill="#D8D8D8" fill-rule="evenodd" x="0" y="0" width="24" height="24"></rect>
            <path d="M20.8987139,9.27387203 C19.7492051,6.15055108 16.8889519,3.87496388 13.5484557,3.32369453 C13.4929823,3.30364293 13.4333772,3.28831992 13.3660557,3.28454902 C13.3242532,3.28233437 13.2791089,3.28275335 13.2369418,3.28089783 C12.8232911,3.22636945 12.4055696,3.19231166 11.9808608,3.19231166 C7.98956962,3.19231166 4.38859747,5.67164706 3.06264304,9.27387203 C1.37073418,9.29338493 0,10.6552178 0,12.3274014 C0,13.9988669 1.37073418,15.3612384 3.06300759,15.3805717 C4.38896203,18.9826171 7.98956962,21.4621321 11.9812253,21.4621321 C13.5350886,21.4621321 15.0272203,21.0819298 16.3509873,20.4106502 C16.0472506,20.1489618 15.7531139,19.861775 15.4915443,19.5531001 C14.4119089,20.043257 13.2191392,20.3202683 11.9808608,20.3202683 C8.33626329,20.3202683 5.06491139,17.9730939 4.0249519,14.6126852 L3.87918987,14.1418019 L3.38545823,14.2147059 C3.27445063,14.2311063 3.18306835,14.2380495 3.09946329,14.2380495 C2.02948861,14.2380495 1.15929114,13.3808586 1.15929114,12.326743 C1.15929114,11.2730464 2.02948861,10.415257 3.09946329,10.415257 C3.18306835,10.415257 3.27445063,10.423098 3.38618734,10.4387802 L3.87955443,10.5106068 L4.0249519,10.0402621 C4.7299443,7.76216099 6.46213671,5.95272859 8.63945316,5.02209494 C8.15331646,6.08267492 8.81334684,7.38968008 9.91345823,7.8999484 C11.284557,8.53561404 13.5025823,8.61797523 14.4379139,7.23591125 C14.8596456,6.61299484 14.4852456,5.82523633 13.9754127,5.39900516 C13.260638,4.80218576 12.2240203,4.71743034 11.3758177,5.04891022 C10.689357,5.31730237 10.9882937,6.42241486 11.6841722,6.15067079 C12.1884759,5.95404541 12.6472709,5.93908153 13.1310987,6.2005903 C13.7948962,6.56014241 13.1832911,6.97051187 12.7193924,7.10195459 C11.8547848,7.34688338 10.5790785,7.14714551 9.90294684,6.54924871 C9.04976203,5.79465015 10.1487797,4.93811765 10.8288,4.70378328 C11.5665418,4.44921775 12.3768304,4.3928937 13.157043,4.42072652 C16.3114329,4.86305882 19.0107949,7.04712693 19.9371949,10.0406811 L20.082957,10.5110258 L20.5765063,10.439259 C20.6874532,10.4231579 20.7792,10.4157358 20.8628658,10.4157358 C21.9327797,10.4157358 22.803038,11.2731662 22.803038,12.327581 C22.803038,13.3809185 21.9328405,14.2388277 20.8628658,14.2388277 C20.7792,14.2388277 20.6874532,14.231226 20.5772354,14.2151249 L20.082957,14.14258 L19.9371949,14.6134634 C19.8853671,14.7804004 19.824,14.9440454 19.7614177,15.106194 C19.9371949,15.0653725 20.1198987,15.0420888 20.3078886,15.0420888 C20.7207494,15.0420888 21.1085165,15.1441424 21.4488304,15.3241878 C22.8777114,15.0530423 23.9624506,13.8141527 23.9624506,12.327581 C23.9620861,10.6552178 22.5913519,9.2930258 20.8987139,9.27387203 Z" id="Shape" fill="#4A4A4A" fill-rule="nonzero"></path>
            <path d="M9.21811229,12 C8.22141355,12 8.22141355,13.5227843 9.21811229,13.5227843 C10.214811,13.5227843 10.2151756,12 9.21811229,12 Z" id="Shape" fill="#4A4A4A" fill-rule="nonzero"></path>
            <path d="M14.4286177,11.8353891 C13.4315544,11.8353891 13.4315544,13.3584727 14.4286177,13.3584727 C15.4253165,13.3581135 15.425681,11.8353891 14.4286177,11.8353891 Z" id="Shape" fill="#4A4A4A" fill-rule="nonzero"></path>
            <path d="M11.9808608,17.2769143 C13.2376709,17.2769143 14.2609823,16.2691868 14.2609823,15.0310753 C14.2609823,14.7147389 14.0009316,14.4599938 13.6808506,14.4599938 C13.3611949,14.4599938 13.1015089,14.715098 13.1015089,15.0310753 C13.1015089,15.6397461 12.5987241,16.1346914 11.9812253,16.1346914 C11.3637266,16.1346914 10.8605772,15.6397461 10.8605772,15.0310753 C10.8605772,14.7147389 10.6010734,14.4599938 10.2809924,14.4599938 C9.96072911,14.4599938 9.70122532,14.715098 9.70122532,15.0310753 C9.70092152,16.2691868 10.7238684,17.2769143 11.9808608,17.2769143 Z" id="Shape" fill="#4A4A4A" fill-rule="nonzero"></path>
            <path d="M18.5980365,15.8053639 C16.2601327,14.484173 13.0557985,18.1864166 18.5980365,20.9863381 C24.1982998,18.1565487 20.8641225,14.5257128 18.5980365,15.8053639 Z M18.5980365,19.6905858 C15.8295301,18.0731101 16.6049428,16.6808108 17.5787352,16.6808108 C18.0341884,16.6808108 18.2587555,16.9829615 18.5980365,17.2997169 C18.9365276,16.9837396 19.1614593,16.6811699 19.617277,16.6811699 C20.4748972,16.6811699 21.4797985,18.0024207 18.5980365,19.6905858 Z" id="Shape" fill="url(#linearGradient-1)" fill-rule="nonzero"></path>
        </g>
    </g>
</svg>