<?xml version="1.0" encoding="UTF-8"?>
<svg width="23px" height="23px" viewBox="0 0 23 23" version="1.1" xmlns="http://www.w3.org/2000/svg" xmlns:xlink="http://www.w3.org/1999/xlink">
    <!-- Generator: Sketch 51 (57462) - http://www.bohemiancoding.com/sketch -->
    <title>Icon24x24-10</title>
    <desc>Created with Sketch.</desc>
    <defs>
        <linearGradient x1="50%" y1="0%" x2="50%" y2="100%" id="linearGradient-1">
            <stop stop-color="#7CCA17" offset="0%"></stop>
            <stop stop-color="#009245" offset="100%"></stop>
        </linearGradient>
    </defs>
    <g id="SideMenu(draft3)-Copy" stroke="none" stroke-width="1" fill="none" fill-rule="evenodd">
        <g id="ICON/icon34/catalog-cosmetic" transform="translate(-1.000000, -1.000000)">
            <rect id="ico-zone" fill-opacity="0" fill="#D8D8D8" fill-rule="evenodd" x="0" y="0" width="24" height="24"></rect>
            <path d="M22.0048488,21.2031579 L18.8939169,12.4456842 C18.6445828,11.744 17.9727424,11.2728421 17.2217618,11.2728421 C17.0222094,11.2728421 16.824359,11.3063158 16.6343801,11.3724211 L15.407282,11.7991579 C14.8662781,11.9873684 14.4769596,12.4111579 14.3116587,12.9132632 C14.3793108,9.97831579 10.6684454,7.79368421 10.4827213,7.68652632 C10.2825307,7.57073684 10.0297928,7.59410526 9.85428033,7.74421053 C9.67898061,7.89452632 9.61962548,8.13852632 9.70663712,8.35136842 C9.86704488,8.74336842 10.0161773,9.29557895 9.81577396,9.69957895 C9.67451302,9.98421053 9.39794792,10.1155789 9.2868964,10.1585263 L9.2603036,10.1585263 C5.11608199,10.1585263 3.74282992,12.7265263 3.35627701,13.7688421 L2.44552687,13.7688421 C2.1459856,13.7688421 1.90324654,14.0092632 1.90324654,14.3056842 L1.90324654,16.3334737 L1.90324654,16.3778947 L1.90324654,23.4288421 C1.90324654,23.7252632 2.1459856,23.9658947 2.44552687,23.9658947 L14.7645873,23.9658947 C15.0641285,23.9658947 15.3070803,23.7252632 15.3070803,23.4288421 L15.3070803,16.8054737 L17.4342914,22.7930526 C17.6832,23.4945263 18.3550404,23.9656842 19.1062338,23.9656842 C19.3059989,23.9656842 19.5036366,23.9324211 19.6938283,23.8661053 L20.9209263,23.4393684 C21.8425263,23.1187368 22.3286427,22.1155789 22.0048488,21.2031579 Z M14.2537928,13.7688421 L14.1820986,13.7688421 C14.1995435,13.7069474 14.2161374,13.6450526 14.2297529,13.5837895 C14.2342205,13.6452632 14.2423047,13.7069474 14.2537928,13.7688421 Z M9.2603036,11.2317895 L9.36539834,11.2324211 C9.41177618,11.2328421 9.45900499,11.2275789 9.50431911,11.2162105 C9.59239446,11.1943158 10.3763501,10.9787368 10.7782205,10.1947368 C10.9088443,9.94021053 10.9813895,9.66105263 10.995856,9.35915789 C12.1495579,10.2837895 13.7423601,11.9597895 13.041374,13.7686316 L4.51806316,13.7686316 C4.96035457,12.8378947 6.17107147,11.2317895 9.2603036,11.2317895 Z M3.75453075,14.8421053 L13.3911224,14.8421053 L14.2223069,14.8421053 L14.2223069,15.7968421 L2.9878072,15.7968421 L2.9878072,14.8421053 L3.75453075,14.8421053 Z M2.9878072,22.8922105 L2.9878072,16.9145263 L14.2223069,16.9145263 L14.2223069,22.8924211 L2.9878072,22.8924211 L2.9878072,22.8922105 Z M20.5609662,22.4267368 L19.3342936,22.8534737 C19.2598338,22.8793684 19.1834593,22.8922105 19.1062338,22.8922105 C18.8147767,22.8922105 18.5539546,22.7096842 18.4573695,22.4374737 L15.3462249,13.6797895 C15.2204942,13.3254737 15.4094094,12.936 15.7668166,12.8115789 L16.9939147,12.3848421 C17.067949,12.3591579 17.144749,12.3461053 17.2217618,12.3461053 C17.5130061,12.3461053 17.7738283,12.5290526 17.870626,12.8014737 L20.9815579,21.5587368 C21.1075014,21.9132632 20.9187989,22.3027368 20.5609662,22.4267368 Z" id="Shape" fill="#4A4A4A" fill-rule="nonzero"></path>
            <path d="M20.6804211,1.28643062 C20.0048978,1.28643062 19.3920484,1.5685614 18.9474362,2.024353 C18.5026884,1.56862945 17.8899068,1.28643062 17.2143158,1.28643062 C15.8592039,1.28643062 14.7567526,2.42148644 14.7567526,3.8166252 C14.7567526,4.77849654 15.4199443,5.86979692 16.7278306,7.06024455 C17.6275572,7.87921318 18.5164428,8.45973844 18.5538439,8.48409995 C18.6736358,8.56201595 18.8105021,8.60093993 18.9475039,8.60093993 C19.084438,8.60093993 19.2214398,8.56201595 19.3411639,8.48409995 C19.378565,8.45980649 20.2673829,7.87921318 21.1670417,7.06024455 C22.474928,5.86966082 23.138052,4.7784285 23.138052,3.8166252 C23.138052,2.42141839 22.035533,1.28643062 20.6804211,1.28643062 L20.6804211,1.28643062 Z M18.9470296,6.99376077 C17.6988361,6.10449761 16.2056382,4.69261882 16.2056382,3.8166252 C16.2056382,3.22385114 16.6581779,2.74165657 17.2143158,2.74165657 C17.7704537,2.74165657 18.2229933,3.22385114 18.2229933,3.8166252 C18.2229933,4.21838596 18.5474071,4.54420415 18.9474362,4.54420415 C19.347533,4.54420415 19.671879,4.21838596 19.671879,3.8166252 C19.671879,3.22385114 20.1243509,2.74165657 20.6804211,2.74165657 C21.236559,2.74165657 21.6890986,3.22385114 21.6890986,3.8166252 C21.6890986,4.68989686 20.1953587,6.10286443 18.9470296,6.99376077 Z M7.75068366,20.9033684 C8.05043767,20.9033684 8.29317673,21.1435789 8.29317673,21.44 C8.29317673,21.7364211 8.05043767,21.9766316 7.7508964,21.9766316 L4.70761662,21.9766316 C4.40807535,21.9766316 4.16533629,21.7364211 4.16533629,21.44 L4.16533629,18.9094737 C4.16533629,18.6130526 4.40807535,18.3724211 4.70761662,18.3724211 C5.00715789,18.3724211 5.24989695,18.6130526 5.24989695,18.9094737 L5.24989695,20.9033684 L7.75068366,20.9033684 Z" id="Shape" fill="url(#linearGradient-1)" fill-rule="nonzero"></path>
        </g>
    </g>
</svg>