<?xml version="1.0" encoding="UTF-8"?>
<svg width="22px" height="23px" viewBox="0 0 22 23" version="1.1" xmlns="http://www.w3.org/2000/svg" xmlns:xlink="http://www.w3.org/1999/xlink">
    <!-- Generator: Sketch 51 (57462) - http://www.bohemiancoding.com/sketch -->
    <title>Icon24x24-6</title>
    <desc>Created with Sketch.</desc>
    <defs>
        <linearGradient x1="50%" y1="0%" x2="50%" y2="100%" id="linearGradient-1">
            <stop stop-color="#D9E021" offset="0%"></stop>
            <stop stop-color="#FB872B" offset="100%"></stop>
        </linearGradient>
    </defs>
    <g id="SideMenu(draft3)-Copy" stroke="none" stroke-width="1" fill="none" fill-rule="evenodd">
        <g id="ICON/icon34/catalog-present" transform="translate(-1.000000, -1.000000)">
            <path d="M10.6578947,14.3034056 C10.2872828,14.3034056 9.98684211,14.6028067 9.98684211,14.9721362 L9.98684211,23.3312693 C9.98684211,23.7005989 10.2872828,24 10.6578947,24 L22.0657895,24 C22.4364014,24 22.7368421,23.7005989 22.7368421,23.3312693 L22.7368421,14.9721362 C22.7368421,14.6028067 22.4364014,14.3034056 22.0657895,14.3034056 L10.6578947,14.3034056 Z M21.3947368,15.6408669 L21.3947368,22.6625387 L11.3289474,22.6625387 L11.3289474,15.6408669 L21.3947368,15.6408669 Z M4.61842105,7.28173375 L2.60526316,7.28173375 L2.60526316,22.6625387 L7.97368421,22.6625387 C8.34429618,22.6625387 8.64473684,22.9619398 8.64473684,23.3312693 C8.64473684,23.7005989 8.34429618,24 7.97368421,24 L1.93421053,24 C1.56359856,24 1.26315789,23.7005989 1.26315789,23.3312693 L1.26315789,6.6130031 C1.26315789,6.24367352 1.56359856,5.94427245 1.93421053,5.94427245 L4.61842105,5.94427245 L4.61842105,4.94117647 C4.61842105,2.90986298 6.27084387,1.26315789 8.30921053,1.26315789 C10.3475772,1.26315789 12,2.90986298 12,4.94117647 L12,5.94427245 L14.6842105,5.94427245 C15.0548225,5.94427245 15.3552632,6.24367352 15.3552632,6.6130031 L15.3552632,12.2972136 C15.3552632,12.6665432 15.0548225,12.9659443 14.6842105,12.9659443 C14.3135986,12.9659443 14.0131579,12.6665432 14.0131579,12.2972136 L14.0131579,7.28173375 L12,7.28173375 L12,8.61919505 C12,8.98852462 11.6995593,9.2879257 11.3289474,9.2879257 C10.9583354,9.2879257 10.6578947,8.98852462 10.6578947,8.61919505 L10.6578947,7.28173375 L5.96052632,7.28173375 L5.96052632,8.61919505 C5.96052632,8.98852462 5.66008565,9.2879257 5.28947368,9.2879257 C4.91886172,9.2879257 4.61842105,8.98852462 4.61842105,8.61919505 L4.61842105,7.28173375 L4.61842105,7.28173375 Z M5.96052632,5.94427245 L10.6578947,5.94427245 L10.6578947,4.94117647 C10.6578947,3.64852246 9.60635291,2.6006192 8.30921053,2.6006192 C7.01206814,2.6006192 5.96052632,3.64852246 5.96052632,4.94117647 L5.96052632,5.94427245 Z" id="Shape" fill="#4A4A4A"></path>
            <path d="M6.23761819,9.99557858 C6.85844027,9.38874974 7.81758551,9.3111642 8.52631573,9.76253957 C9.23504627,9.3111642 10.1941912,9.38874974 10.8150136,9.99557858 L10.8344912,10.0146175 C11.5476816,10.7117325 11.5457494,11.8441014 10.8325765,12.5411989 L8.9964022,14.3359857 C8.73677675,14.5897591 8.31585503,14.5897591 8.05622958,14.3359857 L6.22005498,12.5411989 C5.50688244,11.8441014 5.50494981,10.7117325 6.21814029,10.0146175 L6.23761819,9.99557858 Z M7.2031188,11.6615084 L8.56920693,12.9968046 L9.93529506,11.6615084 C10.1298792,11.47131 10.1304074,11.1619238 9.93720974,10.9730811 L9.91773218,10.9540422 C9.72465187,10.7653142 9.40811186,10.7655234 9.21333128,10.9559138 L9.0392934,11.126029 C8.77966795,11.3798023 8.35874624,11.3798023 8.09912078,11.126029 L7.92508258,10.9559138 C7.730302,10.7655234 7.41376198,10.7653142 7.22068201,10.9540422 L7.20120411,10.9730811 C7.00800647,11.1619238 7.00853467,11.47131 7.2031188,11.6615084 Z M17.7039474,17.6470588 L17.7039474,18.3434626 C17.7039474,19.082122 17.1030664,19.6809239 16.3618421,19.6809239 C15.6206178,19.6809239 15.0197368,19.082122 15.0197368,18.3434626 L15.0197368,17.6470588 C15.0197368,17.2777293 14.7192962,16.9783282 14.3486842,16.9783282 C13.9780722,16.9783282 13.6776316,17.2777293 13.6776316,17.6470588 L13.6776316,18.3434626 C13.6776316,19.8207815 14.8793936,21.0183852 16.3618421,21.0183852 C17.8442906,21.0183852 19.0460526,19.8207815 19.0460526,18.3434626 L19.0460526,17.6470588 C19.0460526,17.2777293 18.745612,16.9783282 18.375,16.9783282 C18.004388,16.9783282 17.7039474,17.2777293 17.7039474,17.6470588 Z" id="Path" fill="url(#linearGradient-1)"></path>
        </g>
    </g>
</svg>