<?xml version="1.0" encoding="UTF-8"?>
<svg width="24px" height="20px" viewBox="0 0 24 20" version="1.1" xmlns="http://www.w3.org/2000/svg" xmlns:xlink="http://www.w3.org/1999/xlink">
    <!-- Generator: Sketch 51 (57462) - http://www.bohemiancoding.com/sketch -->
    <title>Icon24x24-7</title>
    <desc>Created with Sketch.</desc>
    <defs>
        <linearGradient x1="50%" y1="0%" x2="50%" y2="100%" id="linearGradient-1">
            <stop stop-color="#FBB03B" offset="0%"></stop>
            <stop stop-color="#D4145A" offset="100%"></stop>
        </linearGradient>
    </defs>
    <g id="SideMenu(draft3)-Copy" stroke="none" stroke-width="1" fill="none" fill-rule="evenodd">
        <g id="ICON/icon34/catalog-pharma" transform="translate(0.000000, -2.000000)">
            <rect id="ico-zone" fill-opacity="0" fill="#D8D8D8" fill-rule="evenodd" x="0" y="0" width="24" height="24"></rect>
            <path d="M8.58685616,11.9179805 L10.0208923,8.6304538 C10.143693,8.34904416 10.4370359,8.17204895 10.7388039,8.20362795 C11.0461885,8.23036824 11.3025126,8.4509119 11.3709338,8.75040307 L12.4266111,13.2025328 L13.792226,10.9688278 C13.9208987,10.7566883 14.1524584,10.6270616 14.4026551,10.6270616 L16.9942344,10.6270616 C17.3886773,10.6270616 17.7093377,10.9456529 17.7093377,11.3408998 C17.7093377,11.7341093 17.3886773,12.0544833 16.9942344,12.0544833 L14.8042465,12.0544833 L12.7470161,15.4252869 C12.6157905,15.6402279 12.3844861,15.7685812 12.1386294,15.7685812 C12.0995681,15.7685812 12.0617833,15.7655252 12.0268068,15.7601772 C11.7385699,15.714082 11.5116056,15.5021971 11.4424186,15.2207875 L10.4776291,11.1654326 L9.71529477,12.9157751 C9.6014297,13.1788485 9.34331851,13.344893 9.05865583,13.344893 L0.715358594,13.344893 C0.323724018,13.3446383 0,13.0252829 0,12.6313094 C0,12.2380999 0.323724018,11.9177259 0.715358594,11.9177259 L8.58685616,11.9179805 Z" id="Shape" fill="#4A4A4A" fill-rule="nonzero"></path>
            <path d="M24,8.9612693 C24,9.64200049 23.8881774,10.3135636 23.6711699,10.9591504 C22.6517456,15.5602617 13.8366487,21.1263152 13.4616088,21.3631577 C13.3444248,21.4357385 13.2129439,21.4736842 13.0789099,21.4736842 C12.9451312,21.4736842 12.8118631,21.4400679 12.6946791,21.3631577 C12.5938344,21.2977077 10.1102483,19.7342925 7.59219624,17.5853924 C7.29068357,17.326139 7.25902602,16.8789396 7.51203115,16.5794485 C7.77116354,16.282504 8.21896475,16.246341 8.52098802,16.4987183 C10.3979746,18.0982965 12.2948748,19.3915075 13.0824841,19.912561 C15.7299747,18.1907415 21.5746229,13.8101739 22.2910027,10.5794384 C22.4781397,10.0087244 22.5626449,9.48970821 22.5626449,8.96279731 C22.5626449,7.12866859 21.5616025,5.43791872 19.9496202,4.55217869 C17.8911133,3.41278798 15.1356296,3.93817087 13.6295981,5.74912468 C13.3589771,6.07612013 12.8024169,6.07612013 12.5266898,5.74912468 C11.0160628,3.93689752 8.26262153,3.41558935 6.20692296,4.55014134 C4.58983469,5.43791872 3.5887922,7.12764992 3.5887922,8.95999595 C3.5887922,9.48334148 3.6776376,10.0046497 3.84307385,10.508131 C3.94927983,10.9792693 4.1525009,11.4399662 4.41112269,11.9179805 L2.81318214,11.9177259 C2.66434057,11.5634808 2.54409293,11.2196772 2.4695445,10.887079 C2.26989767,10.3094889 2.16190456,9.6369071 2.16190456,8.95974128 C2.16190456,6.60608707 3.4450567,4.4391055 5.51837117,3.29971479 C7.9197498,1.97467012 11.0975044,2.39130919 13.0819735,4.25141418 C15.0610812,2.39105452 18.2365381,1.97467012 20.6420016,3.29971479 C22.712763,4.43757748 24,6.60608707 24,8.9612693 Z" id="Shape" fill="url(#linearGradient-1)" fill-rule="nonzero"></path>
        </g>
    </g>
</svg>