<?xml version="1.0" encoding="UTF-8"?>
<svg width="14px" height="14px" viewBox="0 0 14 14" version="1.1" xmlns="http://www.w3.org/2000/svg" xmlns:xlink="http://www.w3.org/1999/xlink">
    <!-- Generator: Sketch 51 (57462) - http://www.bohemiancoding.com/sketch -->
    <title>Icon24x24-1</title>
    <desc>Created with Sketch.</desc>
    <defs>
        <path d="M8.54193496,7 L13.7763415,1.76502537 C13.9203252,1.62091843 13.9997724,1.42866203 14,1.22365682 C14,1.01853779 13.9205528,0.826053727 13.7763415,0.68217445 L13.3176423,0.223559256 C13.1734309,0.0791108365 12.981187,0 12.7759675,0 C12.5710894,0 12.3788455,0.0791108365 12.2346341,0.223559256 L7.00022764,5.4581924 L1.7655935,0.223559256 C1.62160976,0.0791108365 1.42925203,0 1.22414634,0 C1.01926829,0 0.826910569,0.0791108365 0.682926829,0.223559256 L0.224,0.68217445 C-0.0746666667,0.980860544 -0.0746666667,1.46668076 0.224,1.76502537 L5.45852033,7 L0.224,12.234747 C0.079902439,12.3790816 0.000569105691,12.571338 0.000569105691,12.7763432 C0.000569105691,12.9813484 0.079902439,13.1736048 0.224,13.3178255 L0.682813008,13.7764407 C0.826796748,13.9207753 1.01926829,14 1.22403252,14 C1.42913821,14 1.62149593,13.9207753 1.76547967,13.7764407 L7.00011382,8.54169377 L12.2345203,13.7764407 C12.3787317,13.9207753 12.5709756,14 12.7758537,14 L12.7760813,14 C12.9810732,14 13.1733171,13.9207753 13.3175285,13.7764407 L13.7762276,13.3178255 C13.9202114,13.1737186 13.9996585,12.9813484 13.9996585,12.7763432 C13.9996585,12.571338 13.9202114,12.3790816 13.7762276,12.2348608 L8.54193496,7 Z" id="path-1"></path>
    </defs>
    <g id="SideMenu(draft3)-Copy" stroke="none" stroke-width="1" fill="none" fill-rule="evenodd">
        <g id="ICON/icon24/menuclose24-black" transform="translate(-5.000000, -5.000000)">
            <g id="@color/white/normal" transform="translate(5.000000, 5.000000)">
                <mask id="mask-2" fill="white">
                    <use xlink:href="#path-1"></use>
                </mask>
                <use id="Mask" fill="#4A4A4A" fill-rule="nonzero" xlink:href="#path-1"></use>
                <g id="@color/H-black" mask="url(#mask-2)" fill="#4A4A4A">
                    <g transform="translate(-5.000000, -5.000000)" id="Color">
                        <rect x="0" y="0" width="24" height="24"></rect>
                    </g>
                </g>
            </g>
        </g>
    </g>
</svg>