<?xml version="1.0" encoding="UTF-8"?>
<svg width="22px" height="22px" viewBox="0 0 22 22" version="1.1" xmlns="http://www.w3.org/2000/svg" xmlns:xlink="http://www.w3.org/1999/xlink">
    <!-- Generator: Sketch 51 (57462) - http://www.bohemiancoding.com/sketch -->
    <title>Icon24x24-2</title>
    <desc>Created with Sketch.</desc>
    <defs>
        <linearGradient x1="50%" y1="0%" x2="50%" y2="100%" id="linearGradient-1">
            <stop stop-color="#D9E021" offset="0%"></stop>
            <stop stop-color="#FB872B" offset="100%"></stop>
        </linearGradient>
    </defs>
    <g id="SideMenu(draft3)-Copy" stroke="none" stroke-width="1" fill="none" fill-rule="evenodd">
        <g id="ICON/icon34/catalog-pribor" transform="translate(-1.000000, -1.000000)">
            <rect id="ico-zone" fill-opacity="0" fill="#D8D8D8" x="0" y="0" width="24" height="24"></rect>
            <g id="Group" stroke-width="1" transform="translate(1.411765, 1.411765)">
                <path d="M18.3193828,0.468659595 C17.6912077,-0.155333769 16.6771626,-0.155333769 16.0489875,0.468659595 L6.21407907,10.3070395 C5.58258409,10.9400746 5.10715868,11.7114523 4.82545805,12.5600771 L4.59286403,13.2543877 C4.34092775,13.999965 3.9217466,14.6780173 3.36740598,15.2366442 L0.46171649,18.1423337 C0.164694878,18.4354831 -0.00173304728,18.8359112 2.31253547e-16,19.2532305 C3.8542032e-16,20.1236781 0.705637227,20.8293153 1.57608486,20.8293153 C1.99340418,20.8310484 2.39383227,20.6646205 2.68698168,20.3675988 L5.37743491,17.6771456 C6.05938909,16.9959586 6.92178255,16.5238102 7.86306654,16.316297 C8.96759289,16.0744084 9.97604486,15.5116077 10.7618129,14.6985535 L20.3780135,4.77338476 C20.6683985,4.47383829 20.8303332,4.07273846 20.8293153,3.65554484 C20.8287616,3.23017783 20.6603388,2.82222042 20.3606557,2.52034716 L18.3193828,0.468659595 Z M2.19749277,19.8781099 C1.85014129,20.2024694 1.30822221,20.1931975 0.972170038,19.8571453 C0.636117865,19.5210931 0.62684591,18.979174 0.9512054,18.6318226 L2.43008679,17.1529412 L3.67637416,18.3992285 L2.19749277,19.8781099 Z M10.2549662,14.2333655 C9.56036711,14.9327093 8.67751444,15.4151424 7.71378978,15.6219865 C6.6427718,15.858223 5.66202111,16.3967924 4.887946,17.1737705 L4.16586307,17.9097396 L2.9195757,16.6634523 L3.85342334,15.7296046 C4.48491832,15.0965696 4.96034373,14.3251918 5.24204436,13.476567 L5.47463838,12.7822565 C5.72657467,12.0366791 6.14575581,11.3586269 6.70009643,10.8 L15.2748312,2.22526519 L18.628351,5.57878496 L10.2549662,14.2333655 Z M20.1350048,3.65554484 C20.1362155,3.89284611 20.043925,4.12107816 19.8781099,4.29083896 L19.1108968,5.08235294 L15.7643202,1.73577628 L16.5419479,0.961620058 C16.7119941,0.790750673 16.9431208,0.694687742 17.1841851,0.694687742 C17.4252495,0.694687742 17.6563762,0.790750673 17.8264224,0.961620058 L19.8676953,3.00289296 C20.0387031,3.17287704 20.134905,3.40401145 20.1350048,3.64513018 L20.1350048,3.65554484 Z" id="Shape" stroke="#4A4A4A" stroke-width="0.5" fill="#4A4A4A" fill-rule="nonzero"></path>
                <path d="M15.2748312,4.16586307 C14.507917,4.16586307 13.8862102,4.78756987 13.8862102,5.55448409 C13.8862102,6.3213983 14.507917,6.94310511 15.2748312,6.94310511 C16.0417455,6.94310511 16.6634523,6.3213983 16.6634523,5.55448409 C16.6634523,4.78756987 16.0417455,4.16586307 15.2748312,4.16586307 Z M15.2748312,6.2487946 C14.8913741,6.2487946 14.5805207,5.9379412 14.5805207,5.55448409 C14.5805207,5.17102698 14.8913741,4.86017358 15.2748312,4.86017358 C15.6582884,4.86017358 15.9691418,5.17102698 15.9691418,5.55448409 C15.9691418,5.9379412 15.6582884,6.2487946 15.2748312,6.2487946 Z" id="Shape" stroke="#4A4A4A" stroke-width="0.2" fill="#4A4A4A" fill-rule="nonzero"></path>
                <path d="M12.7440694,6.34946962 C12.6788853,6.28374874 12.5901538,6.24678168 12.4975892,6.24678168 C12.4050246,6.24678168 12.3162931,6.28374874 12.251109,6.34946962 L8.0852459,10.5153327 C8.01952502,10.5805169 7.98255796,10.6692483 7.98255796,10.7618129 C7.98255796,10.8543775 8.01952502,10.943109 8.0852459,11.0082932 L9.82102218,12.7440694 C9.88620634,12.8097903 9.97493779,12.8467574 10.0675024,12.8467574 C10.160067,12.8467574 10.2487985,12.8097903 10.3139826,12.7440694 L14.4798457,8.57820636 C14.5455666,8.5130222 14.5825337,8.42429076 14.5825337,8.33172613 C14.5825337,8.23916151 14.5455666,8.15043006 14.4798457,8.0852459 L12.7440694,6.34946962 Z M10.0675024,12.0081003 L8.82121504,10.7618129 L12.4975892,7.08543877 L13.7438766,8.33172613 L10.0675024,12.0081003 Z" id="Shape" stroke="url(#linearGradient-1)" stroke-width="0.2" fill="url(#linearGradient-1)" fill-rule="nonzero"></path>
            </g>
        </g>
    </g>
</svg>