<?xml version="1.0" encoding="UTF-8"?>
<svg width="21px" height="21px" viewBox="0 0 21 21" version="1.1" xmlns="http://www.w3.org/2000/svg" xmlns:xlink="http://www.w3.org/1999/xlink">
    <!-- Generator: Sketch 51 (57462) - http://www.bohemiancoding.com/sketch -->
    <title>Icon24x24-3</title>
    <desc>Created with Sketch.</desc>
    <defs>
        <linearGradient x1="50%" y1="0%" x2="50%" y2="100%" id="linearGradient-1">
            <stop stop-color="#8E2DE2" offset="0%"></stop>
            <stop stop-color="#4A00E0" offset="100%"></stop>
        </linearGradient>
    </defs>
    <g id="SideMenu(draft3)-Copy" stroke="none" stroke-width="1" fill="none" fill-rule="evenodd">
        <g id="ICON/icon34/catalog-optic" transform="translate(-2.000000, -2.000000)">
            <rect id="ico-zone" fill-opacity="0" fill="#D8D8D8" x="0" y="0" width="24" height="24"></rect>
            <g id="noun_Glasses_801308" stroke-width="1" transform="translate(2.117647, 2.117647)">
                <g id="Group" fill-rule="nonzero">
                    <path d="M8.98075612,14.4656213 L8.22260523,13.6284964 C8.34241844,13.5199863 8.54023163,13.3731559 8.80521964,13.228617 C9.84678985,12.6604877 11.0037178,12.6386073 12.0577965,13.5402093 C12.0925075,13.5698991 12.1269695,13.6005321 12.16118,13.632111 L11.3951225,14.4620067 C11.3713394,14.4400531 11.3475226,14.4188825 11.3236746,14.3984842 C10.6745943,13.8432961 10.0139841,13.8557899 9.34604087,14.2201225 C9.1673314,14.3176004 9.03909416,14.4127868 8.98075612,14.4656213 Z" id="Shape" fill="#4A4A4A"></path>
                    <path d="M20.1781513,15.6806723 C20.1781513,15.9925507 19.9253238,16.2453782 19.6134454,16.2453782 C19.3015669,16.2453782 19.0487395,15.9925507 19.0487395,15.6806723 L19.0487395,2.21848739 C19.0487395,1.77406332 18.6965249,1.42184874 18.2521008,1.42184874 C17.8076768,1.42184874 17.4554622,1.77406332 17.4554622,2.21848739 C17.4554622,2.53036584 17.2026347,2.78319328 16.8907563,2.78319328 C16.5788779,2.78319328 16.3260504,2.53036584 16.3260504,2.21848739 C16.3260504,1.15030643 17.1839199,0.292436975 18.2521008,0.292436975 C19.3202818,0.292436975 20.1781513,1.15030643 20.1781513,2.21848739 L20.1781513,15.6806723 Z" id="Shape" fill="#4A4A4A"></path>
                    <path d="M1.42184874,15.6806723 C1.42184874,15.9925507 1.1690213,16.2453782 0.857142857,16.2453782 C0.54526441,16.2453782 0.292436975,15.9925507 0.292436975,15.6806723 L0.292436975,2.21848739 C0.292436975,1.15030643 1.15030643,0.292436975 2.21848739,0.292436975 C3.28666836,0.292436975 4.14453782,1.15030643 4.14453782,2.21848739 C4.14453782,2.53036584 3.89171038,2.78319328 3.57983193,2.78319328 C3.26795349,2.78319328 3.01512605,2.53036584 3.01512605,2.21848739 C3.01512605,1.77406332 2.66291147,1.42184874 2.21848739,1.42184874 C1.77406332,1.42184874 1.42184874,1.77406332 1.42184874,2.21848739 L1.42184874,15.6806723 Z" id="Shape" fill="#4A4A4A"></path>
                    <path d="M4.88067227,19.0184874 C6.76738861,19.0184874 8.31334952,17.4644746 8.3394958,15.5596639 C8.3394958,13.663139 6.77719718,12.1008403 4.88067227,12.1008403 C2.98414735,12.1008403 1.42184874,13.663139 1.42184874,15.5596639 C1.42184874,17.4561888 2.98414735,19.0184874 4.88067227,19.0184874 Z M4.88067227,20.1478992 C2.36039046,20.1478992 0.292436975,18.0799457 0.292436975,15.5596639 C0.292436975,13.0393821 2.36039046,10.9714286 4.88067227,10.9714286 C7.40095408,10.9714286 9.46890756,13.0393821 9.46885459,15.5673988 C9.43425857,18.0929083 7.38991535,20.1478992 4.88067227,20.1478992 Z" id="Shape" fill="#4A4A4A"></path>
                    <path d="M3.31260504,15.5294118 C3.31260504,15.8412902 3.05977761,16.0941176 2.74789916,16.0941176 C2.43602071,16.0941176 2.18319328,15.8412902 2.18319328,15.5294118 C2.18319328,14.0479481 3.39920857,12.8319328 4.88067227,12.8319328 C5.19255072,12.8319328 5.44537815,13.0847602 5.44537815,13.3966387 C5.44537815,13.7085171 5.19255072,13.9613445 4.88067227,13.9613445 C4.02296546,13.9613445 3.31260504,14.671705 3.31260504,15.5294118 Z" id="Shape" fill="url(#linearGradient-1)"></path>
                    <path d="M15.5596639,19.0487395 C17.4904433,19.0487395 19.0487395,17.4824108 19.0487395,15.5294118 C19.0487395,13.5764127 17.4904433,12.010084 15.5596639,12.010084 C13.6399016,12.010084 12.0705882,13.5955759 12.0705882,15.5294118 C12.0705882,17.4824108 13.6288845,19.0487395 15.5596639,19.0487395 Z M15.5596639,20.1781513 C13.003824,20.1781513 10.9411765,18.1048715 10.9411765,15.5294118 C10.9411765,12.9743973 13.0135369,10.8806723 15.5596639,10.8806723 C18.1155037,10.8806723 20.1781513,12.953952 20.1781513,15.5294118 C20.1781513,18.1048715 18.1155037,20.1781513 15.5596639,20.1781513 Z" id="Shape" fill="#4A4A4A"></path>
                    <path d="M15.5596639,13.9383336 C15.2477854,13.9383336 14.994958,13.6855062 14.994958,13.3736277 C14.994958,13.0617493 15.2477854,12.8089219 15.5596639,12.8089219 C17.0725665,12.8089219 18.287395,14.0326829 18.287395,15.5596639 C18.287395,15.8715423 18.0345675,16.1243697 17.7226891,16.1243697 C17.4108106,16.1243697 17.1579832,15.8715423 17.1579832,15.5596639 C17.1579832,14.6545951 16.4469499,13.9383336 15.5596639,13.9383336 Z" id="Shape" fill="url(#linearGradient-1)"></path>
                </g>
            </g>
        </g>
    </g>
</svg>