<?xml version="1.0" encoding="UTF-8"?>
<svg width="24px" height="23px" viewBox="0 0 24 23" version="1.1" xmlns="http://www.w3.org/2000/svg" xmlns:xlink="http://www.w3.org/1999/xlink">
    <!-- Generator: Sketch 51 (57462) - http://www.bohemiancoding.com/sketch -->
    <title>Icon24x24-9</title>
    <desc>Created with Sketch.</desc>
    <defs>
        <linearGradient x1="50%" y1="0%" x2="50%" y2="100%" id="linearGradient-1">
            <stop stop-color="#00A8C5" offset="0%"></stop>
            <stop stop-color="#0065BC" offset="100%"></stop>
        </linearGradient>
    </defs>
    <g id="SideMenu(draft3)-Copy" stroke="none" stroke-width="1" fill="none" fill-rule="evenodd">
        <g id="ICON/icon34/catalog-forhome">
            <rect id="ico-zone" fill-opacity="0" fill="#D8D8D8" fill-rule="evenodd" x="0" y="0" width="24" height="24"></rect>
            <path d="M22.9869572,10.1169298 L14.419875,1.65570175 C13.7757829,1.0195614 12.9163569,0.669210526 11.9999556,0.669210526 C11.0835099,0.669210526 10.2241727,1.0195614 9.58008059,1.65574561 L1.01313158,10.116886 C0.767111842,10.3598246 0.631578947,10.6837719 0.631578947,11.0289912 C0.631578947,11.3742105 0.767111842,11.698114 1.01228783,11.9402632 C1.12495066,12.0521491 1.24578454,12.1017544 1.37185855,12.1017544 L2.97769243,12.1017544 L2.97769243,19.7825439 C2.97769243,21.3907895 4.30251316,22.6992105 5.93099507,22.6992105 L18.0688717,22.6992105 C19.6973092,22.6992105 21.0221299,21.3907895 21.0221299,19.7825439 L21.0221299,12.1016667 L22.6280526,12.1016667 C22.7541266,12.1016667 22.8749605,12.0520614 22.9638651,11.9638158 C23.2327549,11.6981579 23.3682878,11.3742105 23.3682878,11.0289912 C23.3684211,10.6837719 23.2328882,10.3598684 22.9869572,10.1169298 Z M22.0788226,11.2185164 L20.2895286,11.2185164 C20.0358037,11.2185164 19.8301798,11.4219681 19.8301798,11.6729174 L19.8301798,19.5873425 C19.8301798,20.6482648 18.9576455,21.5113158 17.8851284,21.5113158 L6.11491453,21.5113158 C5.04239746,21.5113158 4.16982003,20.6482222 4.16982003,19.5873425 L4.16982003,11.6729174 C4.16982003,11.4219255 3.96415306,11.2185164 3.7104713,11.2185164 L1.92113421,11.2185164 C1.90382305,11.1770678 1.89473684,11.1320835 1.89473684,11.0854804 C1.89473684,10.9929985 1.93052186,10.9066082 1.99563251,10.8422841 L10.3030967,2.6243002 C10.7541344,2.17807811 11.3568385,1.93236842 12.0000215,1.93236842 C12.6432044,1.93236842 13.2459516,2.17812071 13.6970323,2.6243428 L22.0044535,10.8423692 C22.069478,10.9066508 22.105263,10.9930411 22.105263,11.0855656 C22.1053061,11.1320409 22.0962199,11.1770252 22.0788226,11.2185164 Z" id="Shape" fill="#4A4A4A" fill-rule="nonzero"></path>
            <path d="M14.0155411,10.0412281 C13.5105345,10.0412281 12.7770938,10.192193 12,10.8580263 C11.2228618,10.1922368 10.4894211,10.0412281 9.98441447,10.0412281 C9.02986678,10.0412281 8.13207237,10.5874123 7.64132072,11.4666667 C7.11006908,12.4185526 7.150125,13.5457456 7.7486102,14.4819298 C8.45052138,15.5802632 9.59660033,16.4180263 11.7451431,17.7722807 C11.8229013,17.8212719 11.9114063,17.8457456 12,17.8457456 C12.0885493,17.8457456 12.1770543,17.8212719 12.2548125,17.7722807 C14.4032664,16.4182018 15.5492122,15.5804386 16.2513898,14.4819737 C16.849875,13.5456579 16.8899309,12.4183772 16.3587237,11.4665351 C15.867972,10.5873684 14.9700888,10.0412281 14.0155411,10.0412281 Z M15.1760279,13.9751052 C14.6430981,14.8576732 13.7183141,15.5858888 12.006354,16.7366009 C10.2942307,15.5858035 9.36944671,14.8575452 8.83663927,13.9750625 C8.45865604,13.3491656 8.4316077,12.5988569 8.76434717,11.9679272 C9.06212371,11.4032338 9.59484955,11.0523904 10.1546645,11.0523904 C10.6717652,11.0523904 11.2024104,11.3383623 11.6894029,11.8793847 C11.7716495,11.9707848 11.8863295,12.0225626 12.006354,12.0225626 C12.1263785,12.0225626 12.2410585,11.9707422 12.3233051,11.8793847 C12.810216,11.3383197 13.340902,11.0523904 13.8580026,11.0523904 C14.4178176,11.0523904 14.9505843,11.4031485 15.2484016,11.9678419 C15.5811003,12.598729 15.5540519,13.3491229 15.1760279,13.9751052 Z M9.00228947,6.63381579 C8.88101151,6.63381579 8.75977796,6.58815789 8.66723191,6.49679825 C8.48227303,6.31407895 8.48227303,6.01785088 8.66727632,5.83513158 L10.9198668,3.61048246 C11.1048701,3.42776316 11.4048454,3.42776316 11.5898487,3.61048246 C11.7748076,3.79320175 11.7748076,4.08942982 11.5898043,4.27214912 L9.33721382,6.49679825 C9.24475658,6.58811404 9.12352303,6.63381579 9.00228947,6.63381579 Z M7.98805757,7.63552632 C7.86558059,7.63552632 7.74319243,7.58894737 7.65046875,7.49592105 C7.46688651,7.31175439 7.46915132,7.01548246 7.65562007,6.83425439 L7.66316941,6.82697368 C7.84963816,6.64570175 8.14961349,6.6479386 8.3330625,6.8320614 C8.51664474,7.01622807 8.51437993,7.31241228 8.32791118,7.49372807 L8.32040625,7.50100877 C8.22812664,7.59074561 8.1080477,7.63552632 7.98805757,7.63552632 Z M17.8484751,15.473443 C18.1101264,15.473443 18.3221741,15.6829167 18.3221741,15.9412939 L18.3221741,15.9608114 C18.3221741,16.2191886 18.1101264,16.4286623 17.8484751,16.4286623 C17.5869126,16.4286623 17.3747761,16.2192325 17.3747761,15.9608114 L17.3747761,15.9412939 C17.3747761,15.6829167 17.5868682,15.473443 17.8484751,15.473443 Z M17.8446699,17.0526316 C18.108423,17.0526316 18.3221741,17.2621053 18.3221741,17.5204825 L18.3221741,19.6635088 C18.3221741,19.921886 18.108423,20.1313596 17.8446699,20.1313596 C17.5810062,20.1313596 17.3671656,19.9219298 17.3671656,19.6635088 L17.3671656,17.5204825 C17.3671656,17.2621053 17.5809615,17.0526316 17.8446699,17.0526316 Z" id="Shape" fill="url(#linearGradient-1)" fill-rule="nonzero"></path>
        </g>
    </g>
</svg>